HIERARCHY
ROOT hip
{
  OFFSET 1.39892 82.1912 54.763
  CHANNELS 6 Xposition Yposition Zposition Zrotation Xrotation Yrotation
  JOINT abdomen
  {
    OFFSET 0 20.6881 -0.73152
    CHANNELS 3 Zrotation Xrotation Yrotation
    JOINT chest
    {
      OFFSET 0 11.7043 -0.48768
      CHANNELS 3 Zrotation Xrotation Yrotation
      JOINT neck
      {
        OFFSET 0 22.1894 -2.19456
        CHANNELS 3 Zrotation Xrotation Yrotation
        JOINT head
        {
          OFFSET -0.24384 7.07133 1.2192
          CHANNELS 3 Zrotation Xrotation Yrotation
          JOINT leftEye
          {
            OFFSET 4.14528 8.04674 8.04672
            CHANNELS 3 Zrotation Xrotation Yrotation
            End Site
            {
              OFFSET 1 0 0
            }
          }
          JOINT rightEye
          {
            OFFSET -3.6576 8.04674 8.04672
            CHANNELS 3 Zrotation Xrotation Yrotation
            End Site
            {
              OFFSET 1 0 0
            }
          }
        }
      }
      JOINT rCollar
      {
        OFFSET -2.68224 19.2634 -4.8768
        CHANNELS 3 Zrotation Xrotation Yrotation
        JOINT rShldr
        {
          OFFSET -8.77824 -1.95073 1.46304
          CHANNELS 3 Zrotation Xrotation Yrotation
          JOINT rForeArm
          {
            OFFSET -28.1742 -1.7115 0.48768
            CHANNELS 3 Zrotation Xrotation Yrotation
            JOINT rHand
            {
              OFFSET -22.5879 0.773209 7.07136
              CHANNELS 3 Zrotation Xrotation Yrotation
              JOINT rThumb1
              {
                OFFSET -1.2192 -0.487915 3.41376
                CHANNELS 3 Zrotation Xrotation Yrotation
                JOINT rThumb2
                {
                  OFFSET -3.37035 -0.52449 3.41376
                  CHANNELS 3 Zrotation Xrotation Yrotation
                  End Site
                  {
                    OFFSET -1.78271 -1.18214 1.43049
                  }
                }
              }
              JOINT rIndex1
              {
                OFFSET -7.75947 0.938293 5.60832
                CHANNELS 3 Zrotation Xrotation Yrotation
                JOINT rIndex2
                {
                  OFFSET -2.54057 -0.884171 1.56538
                  CHANNELS 3 Zrotation Xrotation Yrotation
                  End Site
                  {
                    OFFSET -1.62519 -0.234802 1.16502
                  }
                }
              }
              JOINT rMid1
              {
                OFFSET -8.24714 1.18213 3.41376
                CHANNELS 3 Zrotation Xrotation Yrotation
                JOINT rMid2
                {
                  OFFSET -3.10165 -0.590103 1.0647
                  CHANNELS 3 Zrotation Xrotation Yrotation
                  End Site
                  {
                    OFFSET -2.48547 -0.328903 0.83742
                  }
                }
              }
              JOINT rRing1
              {
                OFFSET -8.82822 0.546677 1.51678
                CHANNELS 3 Zrotation Xrotation Yrotation
                JOINT rRing2
                {
                  OFFSET -2.60934 -0.819778 -0.0198488
                  CHANNELS 3 Zrotation Xrotation Yrotation
                  End Site
                  {
                    OFFSET -2.33842 -0.294052 0.168128
                  }
                }
              }
              JOINT rPinky1
              {
                OFFSET -8.27202 -0.0477905 -0.4584
                CHANNELS 3 Zrotation Xrotation Yrotation
                JOINT rPinky2
                {
                  OFFSET -1.82734 -0.647385 -0.700984
                  CHANNELS 3 Zrotation Xrotation Yrotation
                  End Site
                  {
                    OFFSET -1.69225 -0.51767 -0.607171
                  }
                }
              }
            }
          }
        }
      }
      JOINT lCollar
      {
        OFFSET 2.68224 19.2634 -4.8768
        CHANNELS 3 Zrotation Xrotation Yrotation
        JOINT lShldr
        {
          OFFSET 8.77824 -1.95073 1.46304
          CHANNELS 3 Zrotation Xrotation Yrotation
          JOINT lForeArm
          {
            OFFSET 28.1742 -1.7115 0.48768
            CHANNELS 3 Zrotation Xrotation Yrotation
            JOINT lHand
            {
              OFFSET 22.5879 0.773209 7.07136
              CHANNELS 3 Zrotation Xrotation Yrotation
              JOINT lThumb1
              {
                OFFSET 1.2192 -0.487915 3.41376
                CHANNELS 3 Zrotation Xrotation Yrotation
                JOINT lThumb2
                {
                  OFFSET 3.37035 -0.52449 3.41376
                  CHANNELS 3 Zrotation Xrotation Yrotation
                  End Site
                  {
                    OFFSET 1.78271 -1.18214 1.43049
                  }
                }
              }
              JOINT lIndex1
              {
                OFFSET 7.75947 0.938293 5.60832
                CHANNELS 3 Zrotation Xrotation Yrotation
                JOINT lIndex2
                {
                  OFFSET 2.54057 -0.884171 1.56538
                  CHANNELS 3 Zrotation Xrotation Yrotation
                  End Site
                  {
                    OFFSET 1.62519 -0.234802 1.16502
                  }
                }
              }
              JOINT lMid1
              {
                OFFSET 8.24714 1.18213 3.41376
                CHANNELS 3 Zrotation Xrotation Yrotation
                JOINT lMid2
                {
                  OFFSET 3.10165 -0.590103 1.0647
                  CHANNELS 3 Zrotation Xrotation Yrotation
                  End Site
                  {
                    OFFSET 2.48547 -0.328903 0.83742
                  }
                }
              }
              JOINT lRing1
              {
                OFFSET 8.82822 0.546677 1.51678
                CHANNELS 3 Zrotation Xrotation Yrotation
                JOINT lRing2
                {
                  OFFSET 2.60934 -0.819778 -0.0198488
                  CHANNELS 3 Zrotation Xrotation Yrotation
                  End Site
                  {
                    OFFSET 2.33842 -0.294052 0.168128
                  }
                }
              }
              JOINT lPinky1
              {
                OFFSET 8.27202 -0.0477905 -0.4584
                CHANNELS 3 Zrotation Xrotation Yrotation
                JOINT lPinky2
                {
                  OFFSET 1.82734 -0.647385 -0.700984
                  CHANNELS 3 Zrotation Xrotation Yrotation
                  End Site
                  {
                    OFFSET 1.69225 -0.51767 -0.607171
                  }
                }
              }
            }
          }
        }
      }
    }
  }
  JOINT rButtock
  {
    OFFSET -8.77824 4.35084 1.2192
    CHANNELS 3 Zrotation Xrotation Yrotation
    JOINT rThigh
    {
      OFFSET 0 -1.70687 -2.19456
      CHANNELS 3 Zrotation Xrotation Yrotation
      JOINT rShin
      {
        OFFSET 0 -36.8199 0.73152
        CHANNELS 3 Zrotation Xrotation Yrotation
        JOINT rFoot
        {
          OFFSET 0.73152 -45.1104 -5.12064
          CHANNELS 3 Zrotation Xrotation Yrotation
          End Site
          {
            OFFSET -1.1221 -3.69964 12.103
          }
        }
      }
    }
  }
  JOINT lButtock
  {
    OFFSET 8.77824 4.35084 1.2192
    CHANNELS 3 Zrotation Xrotation Yrotation
    JOINT lThigh
    {
      OFFSET 0 -1.70687 -2.19456
      CHANNELS 3 Zrotation Xrotation Yrotation
      JOINT lShin
      {
        OFFSET 0 -36.8199 0.73152
        CHANNELS 3 Zrotation Xrotation Yrotation
        JOINT lFoot
        {
          OFFSET -0.73152 -45.1104 -5.12064
          CHANNELS 3 Zrotation Xrotation Yrotation
          End Site
          {
            OFFSET 1.1221 -3.69964 12.103
          }
        }
      }
    }
  }
}
MOTION
Frames:	8
Frame Time:	0.00833333
3.86942 82.4855 55.001 3.31389 0.0169026 -0.0637731 -4.35895 0.00629238 -0.117456 -1.20159 0.0324761 -0.207681 9.8193e-014 2.38542e-015 -9.9393e-017 2.91819e-013 9.54166e-015 -4.02228e-016 -0 0 0 -0 0 0 4.94506e-014 4.58719e-016 2.48481e-016 1.02345e-012 9.97651e-015 2.5842e-015 1.75758e-011 -4.94894e-012 -2.09917e-013 2.01417e-010 7.00617e-012 -2.54444e-014 4.75058e-010 4.45303e-012 -5.1843e-013 8.20392e-010 7.68422e-012 -9.01687e-013 4.75063e-010 4.45238e-012 -5.21611e-013 7.73091 5.47488 0.417314 4.75057e-010 4.45337e-012 -5.1525e-013 2.90554 0.965183 0.102902 4.7506e-010 4.45357e-012 -5.12069e-013 10.2786 0.731801 0.0259123 4.75047e-010 4.45357e-012 -5.02528e-013 2.22167 -0.733487 -0.20892 4.91498e-014 4.58913e-016 -1.49089e-016 1.02185e-012 9.2994e-015 7.95139e-016 1.76223e-011 5.57511e-012 -1.84472e-013 2.01369e-010 -3.55544e-012 -1.27222e-014 4.75052e-010 4.37959e-012 -4.96167e-013 8.20405e-010 7.56336e-012 -8.75448e-013 4.75048e-010 4.38002e-012 -4.83444e-013 -7.73091 5.47488 -0.417314 4.75051e-010 4.37943e-012 -5.02528e-013 -2.90554 0.965183 -0.102902 4.75045e-010 4.37972e-012 -4.98552e-013 -10.2786 0.731801 -0.0259123 4.75053e-010 4.38082e-012 -5.12069e-013 -2.22167 -0.733487 0.20892 -2.03217e-016 0 -3.88251e-019 -2.8881 -1.94435 0.0304146 -0.00797305 -2.07874 -0.0650965 -0.422348 4.00217 0.127129 2.03217e-016 0 3.88251e-019 -3.72542 -11.2507 0.483803 -0.014313 14.7725 -0.388795 0.544877 -3.54243 0.0125061 
1.45514 82.2377 53.1133 0.502408 2.36819 -0.698636 -1.5643 -1.93347 0.769211 -1.96754 -3.092 -0.106111 -2.1649 3.14531 -3.48556 3.80354 -2.34656 -6.54855 -0 0 0 -0 0 0 8.35108e-014 -5.86817e-014 -3.53806e-014 23.0643 -1.73671 -3.83546 -3.1789 -1.2851 5.12489 0.316937 12.5452 1.61433 -3.89073e-010 4.34052e-010 -4.61501e-011 -6.714e-010 7.41471e-010 -5.25727e-011 -3.89067e-010 4.34053e-010 -4.61559e-011 7.73091 5.47488 0.417314 -3.89074e-010 4.34053e-010 -4.61497e-011 2.90554 0.965183 0.102902 -3.8907e-010 4.34053e-010 -4.61485e-011 10.2786 0.731801 0.0259123 -3.89082e-010 4.34053e-010 -4.614e-011 2.22167 -0.733487 -0.20892 8.32742e-014 -5.86799e-014 -3.57374e-014 -22.8052 -0.955244 3.72814 2.4847 -0.918908 -4.07925 -0.112679 7.45949 -1.01658 6.71901e-010 -7.98598e-012 -9.75866e-010 1.13985e-009 -2.50215e-011 -1.6914e-009 6.71897e-010 -7.98486e-012 -9.75854e-010 -7.73091 5.47488 -0.417314 6.71902e-010 -7.9846e-012 -9.75873e-010 -2.90554 0.965183 -0.102902 6.71895e-010 -7.98409e-012 -9.75869e-010 -10.2786 0.731801 -0.0259123 6.71902e-010 -7.98245e-012 -9.75883e-010 -2.22167 -0.733487 0.20892 -2.03217e-016 0 -3.88251e-019 -0.917749 -3.15171 6.61206 0.0031126 -1.81007 0.032445 -0.819333 1.73174 -6.25134 2.03217e-016 0 3.88251e-019 -2.87817 -10.1098 -11.9406 -0.0118867 13.9253 -0.268717 1.41871 -9.09044 14.5862 
1.42745 82.1713 52.9807 -2.42532 4.83117 -1.38151 1.46926 -3.94036 1.73949 -2.79179 -6.40162 0.00750273 -4.01109 6.41317 -7.21608 7.24061 -4.72114 -13.5285 -0 0 0 -0 0 0 1.18704e-013 -1.26427e-013 -7.34509e-014 47.2203 -3.57755 -7.90292 -6.30063 -2.61524 10.5673 -0.193515 25.7722 3.60004 -1.34128e-009 8.9483e-010 -5.95183e-011 -2.31386e-009 1.52739e-009 -4.57655e-011 -1.34127e-009 8.94832e-010 -5.9527e-011 7.73091 5.47488 0.417314 -1.34128e-009 8.9483e-010 -5.95211e-011 2.90554 0.965183 0.102902 -1.34127e-009 8.9483e-010 -5.95222e-011 10.2786 0.731801 0.0259123 -1.34128e-009 8.9483e-010 -5.95147e-011 2.22167 -0.733487 -0.20892 1.18535e-013 -1.26423e-013 -7.37646e-014 -46.7528 -1.94731 7.6523 4.96202 -1.87087 -8.38272 0.0658453 15.3559 -2.15276 9.36517e-010 -5.49702e-012 -2.03502e-009 1.57459e-009 -3.30356e-011 -3.52811e-009 9.36514e-010 -5.49507e-012 -2.03501e-009 -7.73091 5.47488 -0.417314 9.36521e-010 -5.49387e-012 -2.03503e-009 -2.90554 0.965183 -0.102902 9.36513e-010 -5.49315e-012 -2.03503e-009 -10.2786 0.731801 -0.0259123 9.3652e-010 -5.49097e-012 -2.03504e-009 -2.22167 -0.733487 0.20892 -2.03217e-016 0 -3.88251e-019 1.48177 -4.32451 13.5767 0.0139469 -1.52399 0.135598 -1.78178 -0.627771 -12.9684 2.03217e-016 0 3.88251e-019 -1.44168 -8.45682 -24.9641 -0.0054197 13.027 -0.142852 5.33894 -13.4963 30.5394 
1.40503 82.1586 53.0151 -4.96322 7.0671 -1.98163 4.20582 -5.80779 2.55435 -3.46599 -9.34094 0.0988004 -5.34081 9.29544 -10.5814 9.82734 -6.67214 -19.7685 -0 0 0 -0 0 0 1.51631e-013 -1.76962e-013 -1.06639e-013 68.4982 -5.11668 -11.5477 -8.85498 -3.73211 15.4043 -1.63508 37.4999 5.96268 -2.11733e-009 1.29325e-009 -1.37413e-010 -3.65498e-009 2.20904e-009 -1.55915e-010 -2.11733e-009 1.29325e-009 -1.37425e-010 7.73091 5.47488 0.417314 -2.11734e-009 1.29325e-009 -1.37419e-010 2.90554 0.965183 0.102902 -2.11733e-009 1.29325e-009 -1.37421e-010 10.2786 0.731801 0.0259123 -2.11734e-009 1.29325e-009 -1.37415e-010 2.22167 -0.733487 -0.20892 1.51523e-013 -1.76957e-013 -1.06914e-013 -68.045 -2.81724 11.1966 7.06452 -2.70089 -12.25 0.510474 22.3491 -3.26977 1.0656e-009 -3.27171e-011 -2.92661e-009 1.77875e-009 -9.01913e-011 -5.07245e-009 1.06559e-009 -3.27146e-011 -2.9266e-009 -7.73091 5.47488 -0.417314 1.0656e-009 -3.27126e-011 -2.92661e-009 -2.90554 0.965183 -0.102902 1.0656e-009 -3.27117e-011 -2.92661e-009 -10.2786 0.731801 -0.0259123 1.0656e-009 -3.2709e-011 -2.92662e-009 -2.22167 -0.733487 0.20892 -2.03217e-016 0 -3.88251e-019 3.83692 -5.29764 19.8335 0.0225389 -1.27271 0.22745 -3.1051 -2.62664 -19.0198 2.03217e-016 0 3.88251e-019 0.347606 -6.83658 -36.5075 0.00386039 12.2307 -0.0312803 10.8785 -15.2063 45.1548 
1.40137 82.1435 52.9922 -6.63891 8.73892 -2.36253 6.06779 -7.33222 2.96953 -3.792 -11.3545 0.131655 -6.19023 11.3476 -12.9176 11.3979 -7.91852 -24.0415 -0 0 0 -0 0 0 1.78896e-013 -1.84475e-013 -1.2762e-013 83.09 -5.99446 -14.0932 -10.4767 -4.43619 18.6986 -3.47422 45.6035 8.25236 -2.45302e-009 1.53578e-009 -3.76625e-010 -4.24276e-009 2.63002e-009 -5.58455e-010 -2.45302e-009 1.53578e-009 -3.76638e-010 7.73091 5.47488 0.417314 -2.45303e-009 1.53578e-009 -3.76632e-010 2.90554 0.965183 0.102902 -2.45302e-009 1.53578e-009 -3.76635e-010 10.2786 0.731801 0.0259123 -2.45303e-009 1.53578e-009 -3.76629e-010 2.22167 -0.733487 -0.20892 1.78828e-013 -1.84469e-013 -1.27868e-013 -82.953 -3.42624 13.78 8.49906 -3.2779 -15.0154 0.995387 27.1129 -4.12648 8.55841e-010 -1.3421e-010 -3.39925e-009 1.4065e-009 -2.70201e-010 -5.88586e-009 8.55837e-010 -1.34207e-010 -3.39924e-009 -7.73091 5.47488 -0.417314 8.55847e-010 -1.34205e-010 -3.39925e-009 -2.90554 0.965183 -0.102902 8.55838e-010 -1.34204e-010 -3.39925e-009 -10.2786 0.731801 -0.0259123 8.55846e-010 -1.34201e-010 -3.39926e-009 -2.22167 -0.733487 0.20892 -2.03217e-016 0 -3.88251e-019 5.54304 -5.99826 24.2759 0.0274985 -1.10842 0.2911 -4.29621 -3.93091 -23.3698 2.03217e-016 0 3.88251e-019 1.80861 -5.80196 -44.5523 0.0124821 11.6893 0.0464022 15.3788 -14.8113 55.2672 
1.4306 82.1055 52.9577 -7.13846 9.65989 -2.41574 6.62071 -8.45028 2.75896 -3.59219 -12.0602 0.0687792 -6.78186 12.3555 -13.7108 12.0156 -8.42737 -25.445 -0 0 0 -0 0 0 2.11931e-013 -1.24636e-013 -1.3491e-013 88.491 -5.95149 -15.0665 -10.9834 -4.63496 19.7853 -4.46847 48.7623 9.38388 -2.16854e-009 1.62427e-009 -9.98115e-010 -3.77526e-009 2.80032e-009 -1.63977e-009 -2.16853e-009 1.62428e-009 -9.98128e-010 7.73091 5.47488 0.417314 -2.16854e-009 1.62428e-009 -9.9812e-010 2.90554 0.965183 0.102902 -2.16854e-009 1.62428e-009 -9.98121e-010 10.2786 0.731801 0.0259123 -2.16854e-009 1.62428e-009 -9.98114e-010 2.22167 -0.733487 -0.20892 2.11873e-013 -1.2463e-013 -1.35153e-013 -89.0862 -3.72286 15.0445 9.12825 -3.54385 -16.2542 1.20746 28.7406 -4.44523 -3.42421e-012 -4.16265e-010 -3.37202e-009 -7.69736e-011 -7.54877e-010 -5.82192e-009 -3.43164e-012 -4.16264e-010 -3.37202e-009 -7.73091 5.47488 -0.417314 -3.42176e-012 -4.16262e-010 -3.37203e-009 -2.90554 0.965183 -0.102902 -3.43076e-012 -4.16261e-010 -3.37203e-009 -10.2786 0.731801 -0.0259123 -3.42079e-012 -4.16256e-010 -3.37204e-009 -2.22167 -0.733487 0.20892 -2.03217e-016 0 -3.88251e-019 6.09724 -6.49512 26.1767 0.0281344 -1.0692 0.315277 -4.86839 -4.43494 -25.331 2.03217e-016 0 3.88251e-019 2.25583 -5.70712 -47.7772 0.0169782 11.5097 0.0773804 17.1556 -14.2668 59.1065 
1.46904 82.0386 52.8645 -6.81227 10.0434 -2.23255 6.2131 -9.27527 2.09992 -3.01953 -11.8322 -0.0620403 -7.2775 12.6442 -13.3785 12.0537 -8.47536 -24.7833 -0 0 0 -0 0 0 2.48434e-013 -1.70274e-014 -1.3226e-013 87.3673 -5.26864 -14.9137 -10.7349 -4.49394 19.2923 -4.35504 48.437 9.25822 -1.44125e-009 1.59969e-009 -1.88521e-009 -2.55403e-009 2.78612e-009 -3.19309e-009 -1.44125e-009 1.59969e-009 -1.88522e-009 7.73091 5.47488 0.417314 -1.44126e-009 1.59969e-009 -1.88521e-009 2.90554 0.965183 0.102902 -1.44125e-009 1.59969e-009 -1.88521e-009 10.2786 0.731801 0.0259123 -1.44126e-009 1.59969e-009 -1.8852e-009 2.22167 -0.733487 -0.20892 2.48364e-013 -1.70222e-014 -1.32512e-013 -88.9768 -3.80525 15.363 9.21023 -3.59859 -16.3993 1.14383 28.1364 -4.33092 -1.31828e-009 -8.23647e-010 -2.98363e-009 -2.33968e-009 -1.45085e-009 -5.12437e-009 -1.3183e-009 -8.23648e-010 -2.98363e-009 -7.73091 5.47488 -0.417314 -1.31829e-009 -8.23646e-010 -2.98364e-009 -2.90554 0.965183 -0.102902 -1.3183e-009 -8.23645e-010 -2.98363e-009 -10.2786 0.731801 -0.0259123 -1.31828e-009 -8.2364e-010 -2.98364e-009 -2.22167 -0.733487 0.20892 -2.03217e-016 0 -3.88251e-019 5.76978 -6.89127 26.2553 0.0258661 -1.11915 0.311262 -4.8956 -4.42187 -25.5724 2.03217e-016 0 3.88251e-019 1.88871 -6.30954 -47.5754 0.017767 11.5882 0.0751506 16.8936 -14.319 58.6089 
1.49042 82.008 52.8183 -6.18921 10.1536 -1.97365 5.44495 -9.87019 1.35205 -2.37452 -11.2498 -0.200497 -7.65987 12.6077 -12.6288 11.8506 -8.32489 -23.3693 -0 0 0 -0 0 0 2.64409e-013 9.82984e-014 -1.20196e-013 83.6966 -4.41923 -14.3243 -10.2019 -4.22877 18.2161 -3.7966 46.7081 8.62698 -5.42691e-010 1.42712e-009 -2.62826e-009 -1.03224e-009 2.51529e-009 -4.50413e-009 -5.42684e-010 1.42713e-009 -2.62827e-009 7.73091 5.47488 0.417314 -5.42695e-010 1.42713e-009 -2.62825e-009 2.90554 0.965183 0.102902 -5.42683e-010 1.42713e-009 -2.62825e-009 10.2786 0.731801 0.0259123 -5.42693e-010 1.42713e-009 -2.62824e-009 2.22167 -0.733487 -0.20892 2.64324e-013 9.83026e-014 -1.20455e-013 -86.2919 -3.76855 15.2488 9.05591 -3.55876 -16.0689 0.9838 26.6974 -4.05969 -2.53517e-009 -1.15863e-009 -2.31212e-009 -4.42732e-009 -2.01908e-009 -3.93981e-009 -2.53518e-009 -1.15863e-009 -2.31212e-009 -7.73091 5.47488 -0.417314 -2.53517e-009 -1.15863e-009 -2.31212e-009 -2.90554 0.965183 -0.102902 -2.53518e-009 -1.15863e-009 -2.31212e-009 -10.2786 0.731801 -0.0259123 -2.53517e-009 -1.15862e-009 -2.31212e-009 -2.22167 -0.733487 0.20892 -2.03217e-016 0 -3.88251e-019 5.1049 -7.20141 25.5707 0.0225769 -1.19953 0.29598 -4.68848 -4.20192 -25.0729 2.03217e-016 0 3.88251e-019 1.2722 -7.16388 -45.9895 0.0168446 11.7626 0.0596168 15.8191 -14.5983 56.3791 
